# xmcd
#
# Track frame offsets: 
#        150
#        9615
#        23477
#        34970
#        46738
#        57342
#        69327
#        83398
#        95621
#        109280
#        123854
#        136185
#        146693
#        161352
#        175706
#
# Disc length: 2494 seconds
#
# Revision: 0
# Processed by: cddbd v1.5.2PL0 Copyright (c) Steve Scherf et al.
# Submitted via: ExactAudioCopy v0.99pb5
#
DISCID=b609bc0f
DTITLE=George Jones - The Music Of George Jones: The Epic Years [CD
DTITLE=1) Hits: The 1970's
DYEAR=2010
DGENRE=Country
TTITLE0=We Can Make It
TTITLE1=Loving You Could Never Be Better
TTITLE2=A Picture Of Me (Without You)
TTITLE3=What My Woman Can't Do
TTITLE4=Nothing Ever Hurt Me (Half As Bad As Losing You)
TTITLE5=Once You've Had The Best
TTITLE6=The Grand Tour
TTITLE7=The Door
TTITLE8=These Days (I Barely Get By)
TTITLE9=Memories Of Us
TTITLE10=The Battle
TTITLE11=Her Name Is...
TTITLE12=If I Could Put Them All Together (I'd Have You)
TTITLE13=I'll Just Take It Out In Love
TTITLE14=Someday My Day Will Come
EXTD=
EXTT0=
EXTT1=
EXTT2=
EXTT3=
EXTT4=
EXTT5=
EXTT6=
EXTT7=
EXTT8=
EXTT9=
EXTT10=
EXTT11=
EXTT12=
EXTT13=
EXTT14=
PLAYORDER=
